<svg xmlns="http://www.w3.org/2000/svg" xmlns:xlink="http://www.w3.org/1999/xlink" width="25" height="25" viewBox="0 0 25 25"><defs><linearGradient id="a"><stop offset="0" stop-color="#16ff6a"/><stop offset="1" stop-color="#0090a5"/></linearGradient><linearGradient id="b" x1="1073.403" x2="1097.116" y1="516.451" y2="544.308" gradientTransform="translate(-860.683 618.831) scale(.80097)" gradientUnits="userSpaceOnUse" xlink:href="#a"/></defs><g fill="#fff" transform="translate(4.5 -1031.862)"><rect width="25" height="25" x="-4.5" y="1031.862" fill="url(#b)" rx="5.283" ry="5.283"/><path d="M 11 5 C 10.660236 5 10.374515 5.2038 10.21875 5.4375 C 10.108507 5.6028 10.062538 5.7992 10.03125 6 L 6.5 6 A 0.50005 0.50005 0 0 0 6 6.5 L 6 20.5 A 0.50005 0.50005 0 0 0 6.5 21 L 18 21 C 18.583333 21 19.119107 20.8676 19.5 20.5 C 19.874091 20.138866 20.035224 19.588078 20 19 L 20 6.5 A 0.50005 0.50005 0 0 0 19.5 6 L 15.96875 6 C 15.93746 5.7992 15.891496 5.6028 15.78125 5.4375 C 15.625484 5.2038 15.339763 5 15 5 L 11 5 z M 11.0625 6 L 14.9375 6 C 14.96246 6.039 15 6.1334 15 6.25 L 15 7.75 C 15 7.8666 14.96246 7.9613 14.9375 8 L 11.0625 8 C 11.03754 7.961 11 7.8666 11 7.75 L 11 6.25 C 11 6.1334 11.03754 6.0386 11.0625 6 z M 7 7 L 8 7 L 8 19 L 15.21875 19 L 18 16.21875 L 18 7 L 19 7 L 19 19 A 0.50005 0.50005 0 0 0 19 19.03125 C 19.02869 19.43075 18.949566 19.6176 18.8125 19.75 C 18.675388 19.8823 18.416667 20 18 20 L 7 20 L 7 7 z M 9 7 L 10 7 L 10 7.75 C 10 8.0472 10.062981 8.3288 10.21875 8.5625 C 10.374515 8.7961 10.660236 9 11 9 L 15 9 C 15.339763 9 15.625484 8.7961 15.78125 8.5625 C 15.937016 8.3288 16 8.0472 16 7.75 L 16 7 L 17 7 L 17 15.75 L 14.5 15.75 L 14.5 18 L 9 18 L 9 7 z M 10 10 L 10 11 L 16 11 L 16 10 L 10 10 z M 10 12 L 10 13 L 15 13 L 15 12 L 10 12 z M 10 14 L 10 15 L 16 15 L 16 14 L 10 14 z M 15.5 16.75 L 16.03125 16.75 L 15.5 17.28125 L 15.5 16.75 z " color="#000" font-family="sans-serif" font-weight="400" overflow="visible" transform="translate(-4.5 1031.862)" style="text-indent:0;text-align:start;line-height:normal;text-transform:none;block-progression:tb"/></g></svg>